<svg xmlns="http://www.w3.org/2000/svg" width="242" height="83" viewBox="0 0 242 83"><g transform="translate(-294 -13)"><g transform="translate(-144 -19)"><text transform="translate(623 111)" fill="#0312a0" font-size="18" font-family="Lato-Medium, Lato" font-weight="500"><tspan x="-55.755" y="0">ubezpieczenia</tspan></text><text transform="translate(559 92)" fill="#0312a0" font-size="43" font-family="Lato-Heavy, Lato" font-weight="800"><tspan x="-120.841" y="0">twoje</tspan><tspan y="0" font-family="Lato-Light, Lato" font-weight="300">finanse</tspan></text></g><g transform="translate(487 41) rotate(180)" fill="none" stroke="#fe7a22" stroke-width="4"><path d="M10,0H42a0,0,0,0,1,0,0V18A10,10,0,0,1,32,28H0a0,0,0,0,1,0,0V10A10,10,0,0,1,10,0Z" stroke="none"/><path d="M10,2H40a0,0,0,0,1,0,0V18a8,8,0,0,1-8,8H2a0,0,0,0,1,0,0V10A8,8,0,0,1,10,2Z" fill="none"/></g><g transform="translate(420 21)" fill="none" stroke="#fe7a22" stroke-width="4"><path d="M0,0H19A10,10,0,0,1,29,10V20a0,0,0,0,1,0,0H10A10,10,0,0,1,0,10V0A0,0,0,0,1,0,0Z" stroke="none"/><path d="M2,2H19a8,8,0,0,1,8,8v8a0,0,0,0,1,0,0H10a8,8,0,0,1-8-8V2A0,0,0,0,1,2,2Z" fill="none"/></g></g></svg>